<mxfile host="app.diagrams.net" modified="2024-02-21T04:51:38.851Z" agent="Mozilla/5.0 (Windows NT 10.0; Win64; x64) AppleWebKit/537.36 (KHTML, like Gecko) Chrome/121.0.0.0 Safari/537.36 Edg/121.0.0.0" etag="W01b3496MkYTEgpCkgIc" version="23.1.5" type="device">
  <diagram id="R2lEEEUBdFMjLlhIrx00" name="Page-1">
    <mxGraphModel dx="1358" dy="791" grid="1" gridSize="10" guides="1" tooltips="1" connect="1" arrows="1" fold="1" page="1" pageScale="1" pageWidth="850" pageHeight="1100" math="0" shadow="0" extFonts="Permanent Marker^https://fonts.googleapis.com/css?family=Permanent+Marker">
      <root>
        <mxCell id="0" />
        <mxCell id="1" parent="0" />
        <mxCell id="PdyHk4m6sI9xL2WnvkCg-117" style="edgeStyle=none;rounded=0;orthogonalLoop=1;jettySize=auto;html=1;exitX=1;exitY=0.25;exitDx=0;exitDy=0;entryX=0;entryY=0.5;entryDx=0;entryDy=0;endArrow=none;endFill=0;" edge="1" parent="1" source="PdyHk4m6sI9xL2WnvkCg-1" target="PdyHk4m6sI9xL2WnvkCg-113">
          <mxGeometry relative="1" as="geometry" />
        </mxCell>
        <mxCell id="PdyHk4m6sI9xL2WnvkCg-119" style="edgeStyle=none;rounded=0;orthogonalLoop=1;jettySize=auto;html=1;exitX=1;exitY=0.75;exitDx=0;exitDy=0;entryX=0;entryY=0.5;entryDx=0;entryDy=0;endArrow=none;endFill=0;" edge="1" parent="1" source="PdyHk4m6sI9xL2WnvkCg-1" target="PdyHk4m6sI9xL2WnvkCg-115">
          <mxGeometry relative="1" as="geometry" />
        </mxCell>
        <mxCell id="PdyHk4m6sI9xL2WnvkCg-1" value="User" style="rounded=0;whiteSpace=wrap;html=1;" vertex="1" parent="1">
          <mxGeometry x="365" y="130" width="120" height="60" as="geometry" />
        </mxCell>
        <mxCell id="PdyHk4m6sI9xL2WnvkCg-16" style="edgeStyle=orthogonalEdgeStyle;rounded=0;orthogonalLoop=1;jettySize=auto;html=1;exitX=0.5;exitY=1;exitDx=0;exitDy=0;entryX=0.5;entryY=0;entryDx=0;entryDy=0;endArrow=none;endFill=0;" edge="1" parent="1" source="PdyHk4m6sI9xL2WnvkCg-3" target="PdyHk4m6sI9xL2WnvkCg-13">
          <mxGeometry relative="1" as="geometry" />
        </mxCell>
        <mxCell id="PdyHk4m6sI9xL2WnvkCg-55" style="edgeStyle=orthogonalEdgeStyle;rounded=0;orthogonalLoop=1;jettySize=auto;html=1;exitX=0.5;exitY=0;exitDx=0;exitDy=0;entryX=0.5;entryY=1;entryDx=0;entryDy=0;endArrow=none;endFill=0;" edge="1" parent="1" source="PdyHk4m6sI9xL2WnvkCg-3" target="PdyHk4m6sI9xL2WnvkCg-54">
          <mxGeometry relative="1" as="geometry" />
        </mxCell>
        <mxCell id="PdyHk4m6sI9xL2WnvkCg-122" style="edgeStyle=none;rounded=0;orthogonalLoop=1;jettySize=auto;html=1;exitX=0;exitY=0.5;exitDx=0;exitDy=0;entryX=1;entryY=0.5;entryDx=0;entryDy=0;endArrow=none;endFill=0;" edge="1" parent="1" source="PdyHk4m6sI9xL2WnvkCg-3" target="PdyHk4m6sI9xL2WnvkCg-121">
          <mxGeometry relative="1" as="geometry" />
        </mxCell>
        <mxCell id="PdyHk4m6sI9xL2WnvkCg-3" value="Admin" style="rounded=0;whiteSpace=wrap;html=1;" vertex="1" parent="1">
          <mxGeometry x="160" y="340" width="120" height="60" as="geometry" />
        </mxCell>
        <mxCell id="PdyHk4m6sI9xL2WnvkCg-9" style="edgeStyle=orthogonalEdgeStyle;rounded=0;orthogonalLoop=1;jettySize=auto;html=1;exitX=1;exitY=0.5;exitDx=0;exitDy=0;entryX=0.5;entryY=1;entryDx=0;entryDy=0;strokeColor=default;endArrow=none;endFill=0;" edge="1" parent="1" source="PdyHk4m6sI9xL2WnvkCg-4" target="PdyHk4m6sI9xL2WnvkCg-1">
          <mxGeometry relative="1" as="geometry" />
        </mxCell>
        <mxCell id="PdyHk4m6sI9xL2WnvkCg-11" style="edgeStyle=orthogonalEdgeStyle;rounded=0;orthogonalLoop=1;jettySize=auto;html=1;exitX=0;exitY=0.5;exitDx=0;exitDy=0;entryX=0.5;entryY=0;entryDx=0;entryDy=0;endArrow=none;endFill=0;" edge="1" parent="1" source="PdyHk4m6sI9xL2WnvkCg-4" target="PdyHk4m6sI9xL2WnvkCg-6">
          <mxGeometry relative="1" as="geometry" />
        </mxCell>
        <mxCell id="PdyHk4m6sI9xL2WnvkCg-4" value="" style="triangle;whiteSpace=wrap;html=1;rotation=-180;direction=south;" vertex="1" parent="1">
          <mxGeometry x="385" y="240" width="80" height="60" as="geometry" />
        </mxCell>
        <mxCell id="PdyHk4m6sI9xL2WnvkCg-5" value="ISA" style="text;html=1;align=center;verticalAlign=middle;resizable=0;points=[];autosize=1;strokeColor=none;fillColor=none;" vertex="1" parent="1">
          <mxGeometry x="405" y="260" width="40" height="30" as="geometry" />
        </mxCell>
        <mxCell id="PdyHk4m6sI9xL2WnvkCg-19" style="edgeStyle=orthogonalEdgeStyle;rounded=0;orthogonalLoop=1;jettySize=auto;html=1;exitX=0.5;exitY=1;exitDx=0;exitDy=0;entryX=0.5;entryY=0;entryDx=0;entryDy=0;endArrow=none;endFill=0;" edge="1" parent="1" source="PdyHk4m6sI9xL2WnvkCg-6" target="PdyHk4m6sI9xL2WnvkCg-14">
          <mxGeometry relative="1" as="geometry" />
        </mxCell>
        <mxCell id="PdyHk4m6sI9xL2WnvkCg-51" style="edgeStyle=orthogonalEdgeStyle;rounded=0;orthogonalLoop=1;jettySize=auto;html=1;exitX=1;exitY=0.5;exitDx=0;exitDy=0;entryX=0;entryY=0.5;entryDx=0;entryDy=0;endArrow=none;endFill=0;" edge="1" parent="1" source="PdyHk4m6sI9xL2WnvkCg-6" target="PdyHk4m6sI9xL2WnvkCg-50">
          <mxGeometry relative="1" as="geometry" />
        </mxCell>
        <mxCell id="PdyHk4m6sI9xL2WnvkCg-6" value="Student" style="rounded=0;whiteSpace=wrap;html=1;" vertex="1" parent="1">
          <mxGeometry x="365" y="340" width="120" height="60" as="geometry" />
        </mxCell>
        <mxCell id="PdyHk4m6sI9xL2WnvkCg-52" style="edgeStyle=orthogonalEdgeStyle;rounded=0;orthogonalLoop=1;jettySize=auto;html=1;exitX=0.25;exitY=1;exitDx=0;exitDy=0;entryX=0.5;entryY=0;entryDx=0;entryDy=0;endArrow=none;endFill=0;" edge="1" parent="1" source="PdyHk4m6sI9xL2WnvkCg-7" target="PdyHk4m6sI9xL2WnvkCg-50">
          <mxGeometry relative="1" as="geometry">
            <Array as="points">
              <mxPoint x="590" y="400" />
            </Array>
          </mxGeometry>
        </mxCell>
        <mxCell id="PdyHk4m6sI9xL2WnvkCg-71" style="edgeStyle=orthogonalEdgeStyle;rounded=0;orthogonalLoop=1;jettySize=auto;html=1;exitX=0.75;exitY=1;exitDx=0;exitDy=0;entryX=0.5;entryY=0;entryDx=0;entryDy=0;endArrow=none;endFill=0;" edge="1" parent="1" source="PdyHk4m6sI9xL2WnvkCg-7" target="PdyHk4m6sI9xL2WnvkCg-70">
          <mxGeometry relative="1" as="geometry" />
        </mxCell>
        <mxCell id="PdyHk4m6sI9xL2WnvkCg-85" style="edgeStyle=orthogonalEdgeStyle;rounded=0;orthogonalLoop=1;jettySize=auto;html=1;exitX=1;exitY=0.5;exitDx=0;exitDy=0;entryX=0.5;entryY=0;entryDx=0;entryDy=0;startArrow=classic;startFill=1;endArrow=none;endFill=0;" edge="1" parent="1" source="PdyHk4m6sI9xL2WnvkCg-7" target="PdyHk4m6sI9xL2WnvkCg-84">
          <mxGeometry relative="1" as="geometry">
            <mxPoint x="800" y="660" as="targetPoint" />
          </mxGeometry>
        </mxCell>
        <mxCell id="PdyHk4m6sI9xL2WnvkCg-7" value="Lecturer/Course Maintainer" style="rounded=0;whiteSpace=wrap;html=1;" vertex="1" parent="1">
          <mxGeometry x="570" y="340" width="120" height="60" as="geometry" />
        </mxCell>
        <mxCell id="PdyHk4m6sI9xL2WnvkCg-10" style="edgeStyle=orthogonalEdgeStyle;rounded=0;orthogonalLoop=1;jettySize=auto;html=1;exitX=0;exitY=0.25;exitDx=0;exitDy=0;entryX=0.854;entryY=0.013;entryDx=0;entryDy=0;entryPerimeter=0;endArrow=none;endFill=0;" edge="1" parent="1" source="PdyHk4m6sI9xL2WnvkCg-4" target="PdyHk4m6sI9xL2WnvkCg-3">
          <mxGeometry relative="1" as="geometry" />
        </mxCell>
        <mxCell id="PdyHk4m6sI9xL2WnvkCg-12" style="edgeStyle=orthogonalEdgeStyle;rounded=0;orthogonalLoop=1;jettySize=auto;html=1;exitX=0;exitY=0.75;exitDx=0;exitDy=0;entryX=0.294;entryY=-0.044;entryDx=0;entryDy=0;entryPerimeter=0;endArrow=none;endFill=0;" edge="1" parent="1" source="PdyHk4m6sI9xL2WnvkCg-4" target="PdyHk4m6sI9xL2WnvkCg-7">
          <mxGeometry relative="1" as="geometry" />
        </mxCell>
        <mxCell id="PdyHk4m6sI9xL2WnvkCg-13" value="Creates" style="rhombus;whiteSpace=wrap;html=1;" vertex="1" parent="1">
          <mxGeometry x="180" y="440" width="80" height="80" as="geometry" />
        </mxCell>
        <mxCell id="PdyHk4m6sI9xL2WnvkCg-14" value="Assigned To" style="rhombus;whiteSpace=wrap;html=1;" vertex="1" parent="1">
          <mxGeometry x="385" y="440" width="80" height="80" as="geometry" />
        </mxCell>
        <mxCell id="PdyHk4m6sI9xL2WnvkCg-15" value="Course" style="rounded=0;whiteSpace=wrap;html=1;" vertex="1" parent="1">
          <mxGeometry x="260" y="600" width="120" height="60" as="geometry" />
        </mxCell>
        <mxCell id="PdyHk4m6sI9xL2WnvkCg-17" style="edgeStyle=orthogonalEdgeStyle;rounded=0;orthogonalLoop=1;jettySize=auto;html=1;exitX=0.5;exitY=1;exitDx=0;exitDy=0;entryX=0.124;entryY=0.013;entryDx=0;entryDy=0;entryPerimeter=0;endArrow=none;endFill=0;" edge="1" parent="1" source="PdyHk4m6sI9xL2WnvkCg-13" target="PdyHk4m6sI9xL2WnvkCg-15">
          <mxGeometry relative="1" as="geometry" />
        </mxCell>
        <mxCell id="PdyHk4m6sI9xL2WnvkCg-18" style="edgeStyle=orthogonalEdgeStyle;rounded=0;orthogonalLoop=1;jettySize=auto;html=1;exitX=0.5;exitY=1;exitDx=0;exitDy=0;entryX=0.808;entryY=-0.01;entryDx=0;entryDy=0;entryPerimeter=0;endArrow=none;endFill=0;" edge="1" parent="1" source="PdyHk4m6sI9xL2WnvkCg-14" target="PdyHk4m6sI9xL2WnvkCg-15">
          <mxGeometry relative="1" as="geometry" />
        </mxCell>
        <mxCell id="PdyHk4m6sI9xL2WnvkCg-20" value="&lt;u&gt;course_ID&lt;/u&gt;" style="ellipse;whiteSpace=wrap;html=1;" vertex="1" parent="1">
          <mxGeometry x="15" y="565" width="70" height="30" as="geometry" />
        </mxCell>
        <mxCell id="PdyHk4m6sI9xL2WnvkCg-21" value="course_Name" style="ellipse;whiteSpace=wrap;html=1;" vertex="1" parent="1">
          <mxGeometry x="10" y="615" width="80" height="30" as="geometry" />
        </mxCell>
        <mxCell id="PdyHk4m6sI9xL2WnvkCg-28" value="Course Members" style="rounded=0;whiteSpace=wrap;html=1;strokeWidth=4;" vertex="1" parent="1">
          <mxGeometry x="540" y="600" width="120" height="60" as="geometry" />
        </mxCell>
        <mxCell id="PdyHk4m6sI9xL2WnvkCg-29" value="Discussion Forum" style="rounded=0;whiteSpace=wrap;html=1;strokeWidth=4;" vertex="1" parent="1">
          <mxGeometry x="345" y="740" width="120" height="60" as="geometry" />
        </mxCell>
        <mxCell id="PdyHk4m6sI9xL2WnvkCg-32" style="edgeStyle=orthogonalEdgeStyle;rounded=0;orthogonalLoop=1;jettySize=auto;html=1;exitX=0.5;exitY=1;exitDx=0;exitDy=0;entryX=0.25;entryY=0;entryDx=0;entryDy=0;endArrow=none;endFill=0;" edge="1" parent="1" source="PdyHk4m6sI9xL2WnvkCg-30" target="PdyHk4m6sI9xL2WnvkCg-29">
          <mxGeometry relative="1" as="geometry" />
        </mxCell>
        <mxCell id="PdyHk4m6sI9xL2WnvkCg-30" value="Contains" style="rhombus;whiteSpace=wrap;html=1;" vertex="1" parent="1">
          <mxGeometry x="345" y="680" width="60" height="50" as="geometry" />
        </mxCell>
        <mxCell id="PdyHk4m6sI9xL2WnvkCg-33" value="Discussion Thread" style="rounded=0;whiteSpace=wrap;html=1;strokeWidth=4;" vertex="1" parent="1">
          <mxGeometry x="345" y="890" width="120" height="60" as="geometry" />
        </mxCell>
        <mxCell id="PdyHk4m6sI9xL2WnvkCg-35" style="edgeStyle=orthogonalEdgeStyle;rounded=0;orthogonalLoop=1;jettySize=auto;html=1;exitX=0.5;exitY=0;exitDx=0;exitDy=0;entryX=0.5;entryY=1;entryDx=0;entryDy=0;" edge="1" parent="1" source="PdyHk4m6sI9xL2WnvkCg-34" target="PdyHk4m6sI9xL2WnvkCg-29">
          <mxGeometry relative="1" as="geometry" />
        </mxCell>
        <mxCell id="PdyHk4m6sI9xL2WnvkCg-57" value="" style="edgeStyle=orthogonalEdgeStyle;rounded=0;orthogonalLoop=1;jettySize=auto;html=1;endArrow=none;endFill=0;" edge="1" parent="1" source="PdyHk4m6sI9xL2WnvkCg-34" target="PdyHk4m6sI9xL2WnvkCg-33">
          <mxGeometry relative="1" as="geometry" />
        </mxCell>
        <mxCell id="PdyHk4m6sI9xL2WnvkCg-34" value="Contains" style="rhombus;whiteSpace=wrap;html=1;" vertex="1" parent="1">
          <mxGeometry x="375" y="820" width="60" height="50" as="geometry" />
        </mxCell>
        <mxCell id="PdyHk4m6sI9xL2WnvkCg-39" style="rounded=0;orthogonalLoop=1;jettySize=auto;html=1;exitX=0.5;exitY=1;exitDx=0;exitDy=0;entryX=1;entryY=0.5;entryDx=0;entryDy=0;endArrow=none;endFill=0;" edge="1" parent="1" source="PdyHk4m6sI9xL2WnvkCg-37" target="PdyHk4m6sI9xL2WnvkCg-33">
          <mxGeometry relative="1" as="geometry" />
        </mxCell>
        <mxCell id="PdyHk4m6sI9xL2WnvkCg-64" value="" style="edgeStyle=orthogonalEdgeStyle;rounded=0;orthogonalLoop=1;jettySize=auto;html=1;endArrow=none;endFill=0;" edge="1" parent="1" source="PdyHk4m6sI9xL2WnvkCg-37" target="PdyHk4m6sI9xL2WnvkCg-28">
          <mxGeometry relative="1" as="geometry" />
        </mxCell>
        <mxCell id="PdyHk4m6sI9xL2WnvkCg-37" value="Create/Reply" style="rhombus;whiteSpace=wrap;html=1;" vertex="1" parent="1">
          <mxGeometry x="485" y="730" width="80" height="80" as="geometry" />
        </mxCell>
        <mxCell id="PdyHk4m6sI9xL2WnvkCg-46" value="" style="edgeStyle=orthogonalEdgeStyle;rounded=0;orthogonalLoop=1;jettySize=auto;html=1;endArrow=none;endFill=0;" edge="1" parent="1" source="PdyHk4m6sI9xL2WnvkCg-43" target="PdyHk4m6sI9xL2WnvkCg-15">
          <mxGeometry relative="1" as="geometry" />
        </mxCell>
        <mxCell id="PdyHk4m6sI9xL2WnvkCg-47" value="" style="edgeStyle=orthogonalEdgeStyle;rounded=0;orthogonalLoop=1;jettySize=auto;html=1;endArrow=none;endFill=0;" edge="1" parent="1" source="PdyHk4m6sI9xL2WnvkCg-43" target="PdyHk4m6sI9xL2WnvkCg-28">
          <mxGeometry relative="1" as="geometry" />
        </mxCell>
        <mxCell id="PdyHk4m6sI9xL2WnvkCg-43" value="Contains" style="rhombus;whiteSpace=wrap;html=1;" vertex="1" parent="1">
          <mxGeometry x="420" y="605" width="80" height="50" as="geometry" />
        </mxCell>
        <mxCell id="PdyHk4m6sI9xL2WnvkCg-53" value="" style="edgeStyle=orthogonalEdgeStyle;rounded=0;orthogonalLoop=1;jettySize=auto;html=1;endArrow=none;endFill=0;" edge="1" parent="1" source="PdyHk4m6sI9xL2WnvkCg-50" target="PdyHk4m6sI9xL2WnvkCg-28">
          <mxGeometry relative="1" as="geometry">
            <Array as="points">
              <mxPoint x="590" y="590" />
              <mxPoint x="590" y="590" />
            </Array>
          </mxGeometry>
        </mxCell>
        <mxCell id="PdyHk4m6sI9xL2WnvkCg-50" value="Consist of" style="rhombus;whiteSpace=wrap;html=1;" vertex="1" parent="1">
          <mxGeometry x="550" y="460" width="80" height="80" as="geometry" />
        </mxCell>
        <mxCell id="PdyHk4m6sI9xL2WnvkCg-56" value="" style="edgeStyle=orthogonalEdgeStyle;rounded=0;orthogonalLoop=1;jettySize=auto;html=1;endArrow=none;endFill=0;" edge="1" parent="1" source="PdyHk4m6sI9xL2WnvkCg-54" target="PdyHk4m6sI9xL2WnvkCg-1">
          <mxGeometry relative="1" as="geometry" />
        </mxCell>
        <mxCell id="PdyHk4m6sI9xL2WnvkCg-54" value="Create Account for" style="rhombus;whiteSpace=wrap;html=1;" vertex="1" parent="1">
          <mxGeometry x="165" y="122.5" width="110" height="75" as="geometry" />
        </mxCell>
        <mxCell id="PdyHk4m6sI9xL2WnvkCg-61" style="edgeStyle=orthogonalEdgeStyle;rounded=0;orthogonalLoop=1;jettySize=auto;html=1;exitX=0.5;exitY=0;exitDx=0;exitDy=0;entryX=0.959;entryY=1;entryDx=0;entryDy=0;entryPerimeter=0;" edge="1" parent="1" source="PdyHk4m6sI9xL2WnvkCg-30" target="PdyHk4m6sI9xL2WnvkCg-15">
          <mxGeometry relative="1" as="geometry" />
        </mxCell>
        <mxCell id="PdyHk4m6sI9xL2WnvkCg-149" style="edgeStyle=none;rounded=0;orthogonalLoop=1;jettySize=auto;html=1;exitX=0.25;exitY=1;exitDx=0;exitDy=0;endArrow=none;endFill=0;" edge="1" parent="1" source="PdyHk4m6sI9xL2WnvkCg-65" target="PdyHk4m6sI9xL2WnvkCg-136">
          <mxGeometry relative="1" as="geometry" />
        </mxCell>
        <mxCell id="PdyHk4m6sI9xL2WnvkCg-153" style="edgeStyle=none;rounded=0;orthogonalLoop=1;jettySize=auto;html=1;exitX=1;exitY=0.75;exitDx=0;exitDy=0;entryX=0;entryY=0.5;entryDx=0;entryDy=0;endArrow=none;endFill=0;" edge="1" parent="1" source="PdyHk4m6sI9xL2WnvkCg-65" target="PdyHk4m6sI9xL2WnvkCg-151">
          <mxGeometry relative="1" as="geometry" />
        </mxCell>
        <mxCell id="PdyHk4m6sI9xL2WnvkCg-65" value="Calender Events" style="rounded=0;whiteSpace=wrap;html=1;shadow=0;glass=0;perimeterSpacing=1;strokeColor=default;gradientColor=none;fillStyle=solid;strokeWidth=4;" vertex="1" parent="1">
          <mxGeometry x="480" y="960" width="120" height="60" as="geometry" />
        </mxCell>
        <mxCell id="PdyHk4m6sI9xL2WnvkCg-67" style="edgeStyle=orthogonalEdgeStyle;rounded=0;orthogonalLoop=1;jettySize=auto;html=1;exitX=0.5;exitY=0;exitDx=0;exitDy=0;entryX=0.5;entryY=1;entryDx=0;entryDy=0;" edge="1" parent="1" source="PdyHk4m6sI9xL2WnvkCg-66" target="PdyHk4m6sI9xL2WnvkCg-15">
          <mxGeometry relative="1" as="geometry" />
        </mxCell>
        <mxCell id="PdyHk4m6sI9xL2WnvkCg-68" style="edgeStyle=orthogonalEdgeStyle;rounded=0;orthogonalLoop=1;jettySize=auto;html=1;exitX=1;exitY=0.5;exitDx=0;exitDy=0;entryX=0;entryY=0.5;entryDx=0;entryDy=0;endArrow=none;endFill=0;" edge="1" parent="1" source="PdyHk4m6sI9xL2WnvkCg-66" target="PdyHk4m6sI9xL2WnvkCg-65">
          <mxGeometry relative="1" as="geometry" />
        </mxCell>
        <mxCell id="PdyHk4m6sI9xL2WnvkCg-66" value="Contains" style="rhombus;whiteSpace=wrap;html=1;" vertex="1" parent="1">
          <mxGeometry x="280" y="950" width="80" height="80" as="geometry" />
        </mxCell>
        <mxCell id="PdyHk4m6sI9xL2WnvkCg-72" style="edgeStyle=orthogonalEdgeStyle;rounded=0;orthogonalLoop=1;jettySize=auto;html=1;exitX=0.5;exitY=1;exitDx=0;exitDy=0;entryX=1;entryY=0.5;entryDx=0;entryDy=0;endArrow=none;endFill=0;" edge="1" parent="1" source="PdyHk4m6sI9xL2WnvkCg-70" target="PdyHk4m6sI9xL2WnvkCg-65">
          <mxGeometry relative="1" as="geometry" />
        </mxCell>
        <mxCell id="PdyHk4m6sI9xL2WnvkCg-70" value="Create/Remove&lt;br&gt;/Update" style="rhombus;whiteSpace=wrap;html=1;" vertex="1" parent="1">
          <mxGeometry x="630" y="705" width="110" height="105" as="geometry" />
        </mxCell>
        <mxCell id="PdyHk4m6sI9xL2WnvkCg-75" style="edgeStyle=none;rounded=0;orthogonalLoop=1;jettySize=auto;html=1;exitX=1;exitY=0.5;exitDx=0;exitDy=0;entryX=0.008;entryY=0.102;entryDx=0;entryDy=0;entryPerimeter=0;endArrow=none;endFill=0;" edge="1" parent="1" source="PdyHk4m6sI9xL2WnvkCg-20" target="PdyHk4m6sI9xL2WnvkCg-15">
          <mxGeometry relative="1" as="geometry" />
        </mxCell>
        <mxCell id="PdyHk4m6sI9xL2WnvkCg-76" style="edgeStyle=none;rounded=0;orthogonalLoop=1;jettySize=auto;html=1;exitX=1;exitY=0.5;exitDx=0;exitDy=0;entryX=0.013;entryY=0.35;entryDx=0;entryDy=0;entryPerimeter=0;endArrow=none;endFill=0;" edge="1" parent="1" source="PdyHk4m6sI9xL2WnvkCg-21" target="PdyHk4m6sI9xL2WnvkCg-15">
          <mxGeometry relative="1" as="geometry" />
        </mxCell>
        <mxCell id="PdyHk4m6sI9xL2WnvkCg-88" style="edgeStyle=none;rounded=0;orthogonalLoop=1;jettySize=auto;html=1;exitX=0.75;exitY=1;exitDx=0;exitDy=0;entryX=0.5;entryY=0;entryDx=0;entryDy=0;startArrow=classic;startFill=1;endArrow=none;endFill=0;" edge="1" parent="1" source="PdyHk4m6sI9xL2WnvkCg-79" target="PdyHk4m6sI9xL2WnvkCg-87">
          <mxGeometry relative="1" as="geometry" />
        </mxCell>
        <mxCell id="PdyHk4m6sI9xL2WnvkCg-79" value="Sections/Topics" style="rounded=0;whiteSpace=wrap;html=1;strokeWidth=4;" vertex="1" parent="1">
          <mxGeometry x="130" y="960" width="120" height="60" as="geometry" />
        </mxCell>
        <mxCell id="PdyHk4m6sI9xL2WnvkCg-80" value="Includes" style="rhombus;whiteSpace=wrap;html=1;" vertex="1" parent="1">
          <mxGeometry x="190" y="800" width="80" height="80" as="geometry" />
        </mxCell>
        <mxCell id="PdyHk4m6sI9xL2WnvkCg-81" style="edgeStyle=none;rounded=0;orthogonalLoop=1;jettySize=auto;html=1;exitX=0.25;exitY=1;exitDx=0;exitDy=0;endArrow=none;endFill=0;startArrow=classic;startFill=1;" edge="1" parent="1" source="PdyHk4m6sI9xL2WnvkCg-15" target="PdyHk4m6sI9xL2WnvkCg-80">
          <mxGeometry relative="1" as="geometry" />
        </mxCell>
        <mxCell id="PdyHk4m6sI9xL2WnvkCg-82" style="edgeStyle=none;rounded=0;orthogonalLoop=1;jettySize=auto;html=1;exitX=0.5;exitY=1;exitDx=0;exitDy=0;entryX=0.817;entryY=0.025;entryDx=0;entryDy=0;entryPerimeter=0;endArrow=none;endFill=0;" edge="1" parent="1" source="PdyHk4m6sI9xL2WnvkCg-80" target="PdyHk4m6sI9xL2WnvkCg-79">
          <mxGeometry relative="1" as="geometry" />
        </mxCell>
        <mxCell id="PdyHk4m6sI9xL2WnvkCg-83" value="Section Items" style="rounded=0;whiteSpace=wrap;html=1;strokeWidth=4;" vertex="1" parent="1">
          <mxGeometry x="375" y="1070" width="120" height="60" as="geometry" />
        </mxCell>
        <mxCell id="PdyHk4m6sI9xL2WnvkCg-86" style="edgeStyle=orthogonalEdgeStyle;rounded=0;orthogonalLoop=1;jettySize=auto;html=1;exitX=0.5;exitY=1;exitDx=0;exitDy=0;entryX=1;entryY=0.5;entryDx=0;entryDy=0;endArrow=none;endFill=0;" edge="1" parent="1" source="PdyHk4m6sI9xL2WnvkCg-84" target="PdyHk4m6sI9xL2WnvkCg-83">
          <mxGeometry relative="1" as="geometry" />
        </mxCell>
        <mxCell id="PdyHk4m6sI9xL2WnvkCg-84" value="CRUD" style="rhombus;whiteSpace=wrap;html=1;" vertex="1" parent="1">
          <mxGeometry x="750" y="717.5" width="80" height="80" as="geometry" />
        </mxCell>
        <mxCell id="PdyHk4m6sI9xL2WnvkCg-89" style="edgeStyle=none;rounded=0;orthogonalLoop=1;jettySize=auto;html=1;exitX=1;exitY=0.5;exitDx=0;exitDy=0;entryX=0;entryY=0.5;entryDx=0;entryDy=0;endArrow=none;endFill=0;" edge="1" parent="1" source="PdyHk4m6sI9xL2WnvkCg-87" target="PdyHk4m6sI9xL2WnvkCg-83">
          <mxGeometry relative="1" as="geometry" />
        </mxCell>
        <mxCell id="PdyHk4m6sI9xL2WnvkCg-87" value="Consists of" style="rhombus;whiteSpace=wrap;html=1;" vertex="1" parent="1">
          <mxGeometry x="180" y="1060" width="80" height="80" as="geometry" />
        </mxCell>
        <mxCell id="PdyHk4m6sI9xL2WnvkCg-90" value="Assignment" style="rounded=0;whiteSpace=wrap;html=1;strokeWidth=4;" vertex="1" parent="1">
          <mxGeometry x="280" y="470" width="70" height="30" as="geometry" />
        </mxCell>
        <mxCell id="PdyHk4m6sI9xL2WnvkCg-91" value="grades" style="rhombus;whiteSpace=wrap;html=1;" vertex="1" parent="1">
          <mxGeometry x="292.5" y="525" width="45" height="40" as="geometry" />
        </mxCell>
        <mxCell id="PdyHk4m6sI9xL2WnvkCg-92" style="edgeStyle=none;rounded=0;orthogonalLoop=1;jettySize=auto;html=1;exitX=0.5;exitY=1;exitDx=0;exitDy=0;entryX=0.465;entryY=-0.013;entryDx=0;entryDy=0;entryPerimeter=0;" edge="1" parent="1" source="PdyHk4m6sI9xL2WnvkCg-91" target="PdyHk4m6sI9xL2WnvkCg-15">
          <mxGeometry relative="1" as="geometry" />
        </mxCell>
        <mxCell id="PdyHk4m6sI9xL2WnvkCg-93" style="edgeStyle=none;rounded=0;orthogonalLoop=1;jettySize=auto;html=1;exitX=0.5;exitY=0;exitDx=0;exitDy=0;entryX=0.49;entryY=1.117;entryDx=0;entryDy=0;entryPerimeter=0;endArrow=none;endFill=0;" edge="1" parent="1" source="PdyHk4m6sI9xL2WnvkCg-91" target="PdyHk4m6sI9xL2WnvkCg-90">
          <mxGeometry relative="1" as="geometry" />
        </mxCell>
        <mxCell id="PdyHk4m6sI9xL2WnvkCg-97" style="edgeStyle=orthogonalEdgeStyle;rounded=0;orthogonalLoop=1;jettySize=auto;html=1;exitX=0.5;exitY=0;exitDx=0;exitDy=0;entryX=0;entryY=0.5;entryDx=0;entryDy=0;" edge="1" parent="1" source="PdyHk4m6sI9xL2WnvkCg-95" target="PdyHk4m6sI9xL2WnvkCg-6">
          <mxGeometry relative="1" as="geometry" />
        </mxCell>
        <mxCell id="PdyHk4m6sI9xL2WnvkCg-95" value="Submits" style="rhombus;whiteSpace=wrap;html=1;" vertex="1" parent="1">
          <mxGeometry x="290" y="400" width="55" height="50" as="geometry" />
        </mxCell>
        <mxCell id="PdyHk4m6sI9xL2WnvkCg-99" style="edgeStyle=none;rounded=0;orthogonalLoop=1;jettySize=auto;html=1;exitX=0.5;exitY=1;exitDx=0;exitDy=0;entryX=0.538;entryY=-0.105;entryDx=0;entryDy=0;entryPerimeter=0;endArrow=none;endFill=0;" edge="1" parent="1" source="PdyHk4m6sI9xL2WnvkCg-95" target="PdyHk4m6sI9xL2WnvkCg-90">
          <mxGeometry relative="1" as="geometry" />
        </mxCell>
        <mxCell id="PdyHk4m6sI9xL2WnvkCg-101" value="&lt;u&gt;thread_ID&lt;/u&gt;" style="ellipse;whiteSpace=wrap;html=1;" vertex="1" parent="1">
          <mxGeometry x="510" y="830" width="80" height="30" as="geometry" />
        </mxCell>
        <mxCell id="PdyHk4m6sI9xL2WnvkCg-105" style="edgeStyle=none;rounded=0;orthogonalLoop=1;jettySize=auto;html=1;exitX=0;exitY=0.5;exitDx=0;exitDy=0;entryX=1;entryY=0.75;entryDx=0;entryDy=0;endArrow=none;endFill=0;" edge="1" parent="1" source="PdyHk4m6sI9xL2WnvkCg-102" target="PdyHk4m6sI9xL2WnvkCg-33">
          <mxGeometry relative="1" as="geometry" />
        </mxCell>
        <mxCell id="PdyHk4m6sI9xL2WnvkCg-102" value="reply" style="ellipse;whiteSpace=wrap;html=1;" vertex="1" parent="1">
          <mxGeometry x="510" y="860" width="80" height="30" as="geometry" />
        </mxCell>
        <mxCell id="PdyHk4m6sI9xL2WnvkCg-103" value="created_by" style="ellipse;whiteSpace=wrap;html=1;" vertex="1" parent="1">
          <mxGeometry x="510" y="890" width="80" height="30" as="geometry" />
        </mxCell>
        <mxCell id="PdyHk4m6sI9xL2WnvkCg-104" style="edgeStyle=none;rounded=0;orthogonalLoop=1;jettySize=auto;html=1;exitX=0;exitY=0.5;exitDx=0;exitDy=0;entryX=1.006;entryY=0.598;entryDx=0;entryDy=0;entryPerimeter=0;endArrow=none;endFill=0;" edge="1" parent="1" source="PdyHk4m6sI9xL2WnvkCg-101" target="PdyHk4m6sI9xL2WnvkCg-33">
          <mxGeometry relative="1" as="geometry" />
        </mxCell>
        <mxCell id="PdyHk4m6sI9xL2WnvkCg-106" style="edgeStyle=none;rounded=0;orthogonalLoop=1;jettySize=auto;html=1;exitX=0;exitY=0.5;exitDx=0;exitDy=0;entryX=1.006;entryY=0.892;entryDx=0;entryDy=0;entryPerimeter=0;endArrow=none;endFill=0;" edge="1" parent="1" source="PdyHk4m6sI9xL2WnvkCg-103" target="PdyHk4m6sI9xL2WnvkCg-33">
          <mxGeometry relative="1" as="geometry" />
        </mxCell>
        <mxCell id="PdyHk4m6sI9xL2WnvkCg-107" value="forum_ID" style="ellipse;whiteSpace=wrap;html=1;" vertex="1" parent="1">
          <mxGeometry x="510" y="920" width="80" height="30" as="geometry" />
        </mxCell>
        <mxCell id="PdyHk4m6sI9xL2WnvkCg-108" style="edgeStyle=none;rounded=0;orthogonalLoop=1;jettySize=auto;html=1;exitX=0;exitY=0.5;exitDx=0;exitDy=0;entryX=1.015;entryY=0.947;entryDx=0;entryDy=0;entryPerimeter=0;endArrow=none;endFill=0;" edge="1" parent="1" source="PdyHk4m6sI9xL2WnvkCg-107" target="PdyHk4m6sI9xL2WnvkCg-33">
          <mxGeometry relative="1" as="geometry" />
        </mxCell>
        <mxCell id="PdyHk4m6sI9xL2WnvkCg-109" value="&lt;u&gt;forum_ID&lt;/u&gt;" style="ellipse;whiteSpace=wrap;html=1;" vertex="1" parent="1">
          <mxGeometry x="445" y="675" width="80" height="30" as="geometry" />
        </mxCell>
        <mxCell id="PdyHk4m6sI9xL2WnvkCg-110" value="course_ID" style="ellipse;whiteSpace=wrap;html=1;" vertex="1" parent="1">
          <mxGeometry x="445" y="705" width="80" height="30" as="geometry" />
        </mxCell>
        <mxCell id="PdyHk4m6sI9xL2WnvkCg-111" style="edgeStyle=none;rounded=0;orthogonalLoop=1;jettySize=auto;html=1;exitX=0;exitY=0.5;exitDx=0;exitDy=0;entryX=0.542;entryY=0;entryDx=0;entryDy=0;entryPerimeter=0;endArrow=none;endFill=0;" edge="1" parent="1" source="PdyHk4m6sI9xL2WnvkCg-109" target="PdyHk4m6sI9xL2WnvkCg-29">
          <mxGeometry relative="1" as="geometry" />
        </mxCell>
        <mxCell id="PdyHk4m6sI9xL2WnvkCg-112" style="edgeStyle=none;rounded=0;orthogonalLoop=1;jettySize=auto;html=1;exitX=0;exitY=0.5;exitDx=0;exitDy=0;entryX=0.715;entryY=-0.04;entryDx=0;entryDy=0;entryPerimeter=0;endArrow=none;endFill=0;" edge="1" parent="1" source="PdyHk4m6sI9xL2WnvkCg-110" target="PdyHk4m6sI9xL2WnvkCg-29">
          <mxGeometry relative="1" as="geometry" />
        </mxCell>
        <mxCell id="PdyHk4m6sI9xL2WnvkCg-113" value="&lt;u&gt;user_ID&lt;/u&gt;" style="ellipse;whiteSpace=wrap;html=1;" vertex="1" parent="1">
          <mxGeometry x="570" y="110" width="80" height="30" as="geometry" />
        </mxCell>
        <mxCell id="PdyHk4m6sI9xL2WnvkCg-114" value="username" style="ellipse;whiteSpace=wrap;html=1;" vertex="1" parent="1">
          <mxGeometry x="570" y="145" width="80" height="30" as="geometry" />
        </mxCell>
        <mxCell id="PdyHk4m6sI9xL2WnvkCg-115" value="password" style="ellipse;whiteSpace=wrap;html=1;" vertex="1" parent="1">
          <mxGeometry x="570" y="180" width="80" height="30" as="geometry" />
        </mxCell>
        <mxCell id="PdyHk4m6sI9xL2WnvkCg-116" value="role" style="ellipse;whiteSpace=wrap;html=1;" vertex="1" parent="1">
          <mxGeometry x="570" y="220" width="80" height="30" as="geometry" />
        </mxCell>
        <mxCell id="PdyHk4m6sI9xL2WnvkCg-118" style="edgeStyle=none;rounded=0;orthogonalLoop=1;jettySize=auto;html=1;exitX=1;exitY=0.5;exitDx=0;exitDy=0;entryX=0.005;entryY=0.42;entryDx=0;entryDy=0;entryPerimeter=0;endArrow=none;endFill=0;" edge="1" parent="1" source="PdyHk4m6sI9xL2WnvkCg-1" target="PdyHk4m6sI9xL2WnvkCg-114">
          <mxGeometry relative="1" as="geometry" />
        </mxCell>
        <mxCell id="PdyHk4m6sI9xL2WnvkCg-120" style="edgeStyle=none;rounded=0;orthogonalLoop=1;jettySize=auto;html=1;exitX=1;exitY=1;exitDx=0;exitDy=0;entryX=-0.02;entryY=0.387;entryDx=0;entryDy=0;entryPerimeter=0;endArrow=none;endFill=0;" edge="1" parent="1" source="PdyHk4m6sI9xL2WnvkCg-1" target="PdyHk4m6sI9xL2WnvkCg-116">
          <mxGeometry relative="1" as="geometry" />
        </mxCell>
        <mxCell id="PdyHk4m6sI9xL2WnvkCg-121" value="&lt;u&gt;admin_ID&lt;/u&gt;" style="ellipse;whiteSpace=wrap;html=1;" vertex="1" parent="1">
          <mxGeometry x="10" y="360" width="80" height="30" as="geometry" />
        </mxCell>
        <mxCell id="PdyHk4m6sI9xL2WnvkCg-123" value="admin_name" style="ellipse;whiteSpace=wrap;html=1;" vertex="1" parent="1">
          <mxGeometry x="10" y="400" width="80" height="30" as="geometry" />
        </mxCell>
        <mxCell id="PdyHk4m6sI9xL2WnvkCg-125" style="edgeStyle=none;rounded=0;orthogonalLoop=1;jettySize=auto;html=1;exitX=0;exitY=0.75;exitDx=0;exitDy=0;entryX=0.965;entryY=0.627;entryDx=0;entryDy=0;entryPerimeter=0;endArrow=none;endFill=0;" edge="1" parent="1" source="PdyHk4m6sI9xL2WnvkCg-3" target="PdyHk4m6sI9xL2WnvkCg-123">
          <mxGeometry relative="1" as="geometry" />
        </mxCell>
        <mxCell id="PdyHk4m6sI9xL2WnvkCg-126" value="&lt;u&gt;student_ID&lt;/u&gt;" style="ellipse;whiteSpace=wrap;html=1;" vertex="1" parent="1">
          <mxGeometry x="430" y="420" width="80" height="30" as="geometry" />
        </mxCell>
        <mxCell id="PdyHk4m6sI9xL2WnvkCg-127" style="edgeStyle=none;rounded=0;orthogonalLoop=1;jettySize=auto;html=1;exitX=0.5;exitY=0;exitDx=0;exitDy=0;entryX=0.845;entryY=1.033;entryDx=0;entryDy=0;entryPerimeter=0;endArrow=none;endFill=0;" edge="1" parent="1" source="PdyHk4m6sI9xL2WnvkCg-126" target="PdyHk4m6sI9xL2WnvkCg-6">
          <mxGeometry relative="1" as="geometry" />
        </mxCell>
        <mxCell id="PdyHk4m6sI9xL2WnvkCg-128" value="student_name" style="ellipse;whiteSpace=wrap;html=1;" vertex="1" parent="1">
          <mxGeometry x="340" y="420" width="80" height="30" as="geometry" />
        </mxCell>
        <mxCell id="PdyHk4m6sI9xL2WnvkCg-129" style="edgeStyle=none;rounded=0;orthogonalLoop=1;jettySize=auto;html=1;exitX=0.5;exitY=0;exitDx=0;exitDy=0;entryX=0.138;entryY=1.047;entryDx=0;entryDy=0;entryPerimeter=0;endArrow=none;endFill=0;" edge="1" parent="1" source="PdyHk4m6sI9xL2WnvkCg-128" target="PdyHk4m6sI9xL2WnvkCg-6">
          <mxGeometry relative="1" as="geometry" />
        </mxCell>
        <mxCell id="PdyHk4m6sI9xL2WnvkCg-132" style="edgeStyle=none;rounded=0;orthogonalLoop=1;jettySize=auto;html=1;exitX=0;exitY=0.5;exitDx=0;exitDy=0;entryX=0.75;entryY=0;entryDx=0;entryDy=0;endArrow=none;endFill=0;" edge="1" parent="1" source="PdyHk4m6sI9xL2WnvkCg-130" target="PdyHk4m6sI9xL2WnvkCg-7">
          <mxGeometry relative="1" as="geometry" />
        </mxCell>
        <mxCell id="PdyHk4m6sI9xL2WnvkCg-130" value="&lt;u&gt;lec_ID&lt;/u&gt;" style="ellipse;whiteSpace=wrap;html=1;" vertex="1" parent="1">
          <mxGeometry x="700" y="280" width="80" height="30" as="geometry" />
        </mxCell>
        <mxCell id="PdyHk4m6sI9xL2WnvkCg-131" value="lec_name" style="ellipse;whiteSpace=wrap;html=1;" vertex="1" parent="1">
          <mxGeometry x="700" y="320" width="80" height="30" as="geometry" />
        </mxCell>
        <mxCell id="PdyHk4m6sI9xL2WnvkCg-133" style="edgeStyle=none;rounded=0;orthogonalLoop=1;jettySize=auto;html=1;exitX=0;exitY=0.5;exitDx=0;exitDy=0;entryX=0.93;entryY=-0.013;entryDx=0;entryDy=0;entryPerimeter=0;endArrow=none;endFill=0;" edge="1" parent="1" source="PdyHk4m6sI9xL2WnvkCg-131" target="PdyHk4m6sI9xL2WnvkCg-7">
          <mxGeometry relative="1" as="geometry" />
        </mxCell>
        <mxCell id="PdyHk4m6sI9xL2WnvkCg-134" value="&lt;u&gt;event_ID&lt;/u&gt;" style="ellipse;whiteSpace=wrap;html=1;" vertex="1" parent="1">
          <mxGeometry x="510" y="1040" width="80" height="30" as="geometry" />
        </mxCell>
        <mxCell id="PdyHk4m6sI9xL2WnvkCg-135" value="event_name" style="ellipse;whiteSpace=wrap;html=1;" vertex="1" parent="1">
          <mxGeometry x="600" y="1040" width="80" height="30" as="geometry" />
        </mxCell>
        <mxCell id="PdyHk4m6sI9xL2WnvkCg-136" value="course_ID" style="ellipse;whiteSpace=wrap;html=1;" vertex="1" parent="1">
          <mxGeometry x="425" y="1030" width="80" height="30" as="geometry" />
        </mxCell>
        <mxCell id="PdyHk4m6sI9xL2WnvkCg-137" value="&lt;u&gt;item_ID&lt;/u&gt;" style="ellipse;whiteSpace=wrap;html=1;" vertex="1" parent="1">
          <mxGeometry x="365" y="1160" width="80" height="30" as="geometry" />
        </mxCell>
        <mxCell id="PdyHk4m6sI9xL2WnvkCg-138" value="item_name" style="ellipse;whiteSpace=wrap;html=1;" vertex="1" parent="1">
          <mxGeometry x="450" y="1160" width="80" height="30" as="geometry" />
        </mxCell>
        <mxCell id="PdyHk4m6sI9xL2WnvkCg-142" style="edgeStyle=none;rounded=0;orthogonalLoop=1;jettySize=auto;html=1;exitX=1;exitY=0.5;exitDx=0;exitDy=0;entryX=0;entryY=0.75;entryDx=0;entryDy=0;endArrow=none;endFill=0;" edge="1" parent="1" source="PdyHk4m6sI9xL2WnvkCg-139" target="PdyHk4m6sI9xL2WnvkCg-79">
          <mxGeometry relative="1" as="geometry" />
        </mxCell>
        <mxCell id="PdyHk4m6sI9xL2WnvkCg-139" value="section_name" style="ellipse;whiteSpace=wrap;html=1;" vertex="1" parent="1">
          <mxGeometry x="15" y="1020" width="80" height="30" as="geometry" />
        </mxCell>
        <mxCell id="PdyHk4m6sI9xL2WnvkCg-141" style="edgeStyle=none;rounded=0;orthogonalLoop=1;jettySize=auto;html=1;exitX=1;exitY=0.5;exitDx=0;exitDy=0;entryX=0;entryY=0.5;entryDx=0;entryDy=0;endArrow=none;endFill=0;" edge="1" parent="1" source="PdyHk4m6sI9xL2WnvkCg-140" target="PdyHk4m6sI9xL2WnvkCg-79">
          <mxGeometry relative="1" as="geometry" />
        </mxCell>
        <mxCell id="PdyHk4m6sI9xL2WnvkCg-140" value="&lt;u&gt;section_ID&lt;/u&gt;" style="ellipse;whiteSpace=wrap;html=1;" vertex="1" parent="1">
          <mxGeometry x="15" y="970" width="80" height="30" as="geometry" />
        </mxCell>
        <mxCell id="PdyHk4m6sI9xL2WnvkCg-143" style="edgeStyle=none;rounded=0;orthogonalLoop=1;jettySize=auto;html=1;exitX=0.5;exitY=0;exitDx=0;exitDy=0;entryX=0.252;entryY=1.053;entryDx=0;entryDy=0;entryPerimeter=0;endArrow=none;endFill=0;" edge="1" parent="1" source="PdyHk4m6sI9xL2WnvkCg-137" target="PdyHk4m6sI9xL2WnvkCg-83">
          <mxGeometry relative="1" as="geometry" />
        </mxCell>
        <mxCell id="PdyHk4m6sI9xL2WnvkCg-144" style="edgeStyle=none;rounded=0;orthogonalLoop=1;jettySize=auto;html=1;exitX=0.5;exitY=0;exitDx=0;exitDy=0;entryX=0.898;entryY=1.06;entryDx=0;entryDy=0;entryPerimeter=0;endArrow=none;endFill=0;" edge="1" parent="1" source="PdyHk4m6sI9xL2WnvkCg-138" target="PdyHk4m6sI9xL2WnvkCg-83">
          <mxGeometry relative="1" as="geometry" />
        </mxCell>
        <mxCell id="PdyHk4m6sI9xL2WnvkCg-145" value="section_ID" style="ellipse;whiteSpace=wrap;html=1;" vertex="1" parent="1">
          <mxGeometry x="275" y="1160" width="80" height="30" as="geometry" />
        </mxCell>
        <mxCell id="PdyHk4m6sI9xL2WnvkCg-146" style="edgeStyle=none;rounded=0;orthogonalLoop=1;jettySize=auto;html=1;exitX=0;exitY=0.75;exitDx=0;exitDy=0;entryX=0.543;entryY=-0.027;entryDx=0;entryDy=0;entryPerimeter=0;endArrow=none;endFill=0;" edge="1" parent="1" source="PdyHk4m6sI9xL2WnvkCg-83" target="PdyHk4m6sI9xL2WnvkCg-145">
          <mxGeometry relative="1" as="geometry" />
        </mxCell>
        <mxCell id="PdyHk4m6sI9xL2WnvkCg-147" value="course_ID" style="ellipse;whiteSpace=wrap;html=1;" vertex="1" parent="1">
          <mxGeometry x="10" y="920" width="80" height="30" as="geometry" />
        </mxCell>
        <mxCell id="PdyHk4m6sI9xL2WnvkCg-148" style="edgeStyle=none;rounded=0;orthogonalLoop=1;jettySize=auto;html=1;exitX=1;exitY=0.5;exitDx=0;exitDy=0;entryX=-0.02;entryY=0.12;entryDx=0;entryDy=0;entryPerimeter=0;endArrow=none;endFill=0;" edge="1" parent="1" source="PdyHk4m6sI9xL2WnvkCg-147" target="PdyHk4m6sI9xL2WnvkCg-79">
          <mxGeometry relative="1" as="geometry" />
        </mxCell>
        <mxCell id="PdyHk4m6sI9xL2WnvkCg-150" style="edgeStyle=none;rounded=0;orthogonalLoop=1;jettySize=auto;html=1;exitX=0.5;exitY=1;exitDx=0;exitDy=0;entryX=0.395;entryY=-0.027;entryDx=0;entryDy=0;entryPerimeter=0;endArrow=none;endFill=0;" edge="1" parent="1" source="PdyHk4m6sI9xL2WnvkCg-65" target="PdyHk4m6sI9xL2WnvkCg-134">
          <mxGeometry relative="1" as="geometry" />
        </mxCell>
        <mxCell id="PdyHk4m6sI9xL2WnvkCg-151" value="event_date" style="ellipse;whiteSpace=wrap;html=1;" vertex="1" parent="1">
          <mxGeometry x="645" y="1000" width="80" height="30" as="geometry" />
        </mxCell>
        <mxCell id="PdyHk4m6sI9xL2WnvkCg-152" style="edgeStyle=none;rounded=0;orthogonalLoop=1;jettySize=auto;html=1;exitX=1;exitY=1;exitDx=0;exitDy=0;entryX=0.245;entryY=0;entryDx=0;entryDy=0;entryPerimeter=0;endArrow=none;endFill=0;" edge="1" parent="1" source="PdyHk4m6sI9xL2WnvkCg-65" target="PdyHk4m6sI9xL2WnvkCg-135">
          <mxGeometry relative="1" as="geometry" />
        </mxCell>
      </root>
    </mxGraphModel>
  </diagram>
</mxfile>
